<?xml version="1.0" encoding="UTF-8" standalone="no"?>
<svg
   xmlns:dc="http://purl.org/dc/elements/1.1/"
   xmlns:cc="http://creativecommons.org/ns#"
   xmlns:rdf="http://www.w3.org/1999/02/22-rdf-syntax-ns#"
   xmlns:svg="http://www.w3.org/2000/svg"
   xmlns="http://www.w3.org/2000/svg"
   xmlns:sodipodi="http://sodipodi.sourceforge.net/DTD/sodipodi-0.dtd"
   xmlns:inkscape="http://www.inkscape.org/namespaces/inkscape"
   data-name="Layer 1"
   width="109"
   height="240"
   viewBox="0 0 109 240"
   version="1.1"
   id="svg3945"
   sodipodi:docname="trybe-wallet.svg"
   inkscape:version="0.92.5 (2060ec1f9f, 2020-04-08)">
  <metadata
     id="metadata3951">
    <rdf:RDF>
      <cc:Work
         rdf:about="">
        <dc:format>image/svg+xml</dc:format>
        <dc:type
           rdf:resource="http://purl.org/dc/dcmitype/StillImage" />
        <dc:title></dc:title>
      </cc:Work>
    </rdf:RDF>
  </metadata>
  <defs
     id="defs3949" />
  <sodipodi:namedview
     pagecolor="#ffffff"
     bordercolor="#666666"
     borderopacity="1"
     objecttolerance="10"
     gridtolerance="10"
     guidetolerance="10"
     inkscape:pageopacity="0"
     inkscape:pageshadow="2"
     inkscape:window-width="1366"
     inkscape:window-height="699"
     id="namedview3947"
     showgrid="false"
     inkscape:zoom="2.965098"
     inkscape:cx="105.67586"
     inkscape:cy="182.32142"
     inkscape:window-x="0"
     inkscape:window-y="0"
     inkscape:window-maximized="1"
     inkscape:current-layer="svg3945"
     width="95px" />
  <g
     id="g3975"
     transform="matrix(0.34778516,0,0,0.34778516,-0.454969,-0.0285616)">
    <path
       id="path3901"
       transform="translate(-444.41424,-108.71297)"
       d="m 756.73957,798.06625 h -121.03 l -1.18,-5.1 -6.47,-28.06 -6.46,28.06 -1.17,5.1 h -124.5 c -0.27,-1.72 -0.53,-3.42 -0.79,-5.1 -3.63,-23.17 -7.22,-42.46 -10.26,-47.98 -8.82,-15.98 -0.6,-5.97 8.81,-15.39 9.41,-9.41 0,0 -5.51,-12.08 -5.52,-12.08 24.37,-103.88 24.37,-103.88 l 203.9,3.01 c 0,0 37.66,65.89 38.05,74.98 0.22,5.17 1.27,57.32 2.13,101.34 0.04,1.70998 0.07,3.41994 0.11,5.1 z"
       inkscape:connector-curvature="0"
       style="fill:#2f2e41" />
    <path
       id="path3903"
       transform="translate(-444.41424,-108.71297)"
       d="m 637.8194,677.4775 c 0,0 86.78375,39.925 100.456,9.29968 13.67225,-30.62532 6.90448,-71.56005 -1.56573,-76.91809 -8.47021,-5.35804 -17.77167,-30.04309 -5.38013,-47.1029 12.39154,-17.05981 -7.09991,-45.88031 -12.55743,-48.82343 -4.15564,-2.241 -15.46167,-128.52191 -20.61933,-188.64374 a 48.38235,48.38235 0 0 0 -32.23834,-41.53308 v 0 l -20.51539,-33.13334 -52.62915,-0.47348 -26.2919,36.45161 -37.9447,14.19278 -28.48261,117.62778 c 0,0 -0.275,51.957 5.71109,107.43243 1.86252,17.26062 4.33118,34.86188 7.60285,51.34473 7.706,38.823 -25.86032,70.79376 -6.67206,78.14258 53.51819,20.49658 131.12683,22.13647 131.12683,22.13647 z"
       inkscape:connector-curvature="0"
       style="fill:#e6e6e6" />
    <path
       id="path3905"
       transform="translate(-444.41424,-108.71297)"
       d="m 528.88448,601.84869 166.95367,-6 a 8.63685,8.63685 0 0 1 8.63686,8.63684 v 83.71454 a 8.63683,8.63683 0 0 1 -8.63686,8.63684 H 538.88448 a 8.63683,8.63683 0 0 1 -8.63685,-8.63684 c -9.255,-23.5864 -16.99663,-46.545 -10,-77.71454 a 8.63685,8.63685 0 0 1 8.63685,-8.63684 z"
       inkscape:connector-curvature="0"
       style="fill:#3f3d56" />
    <rect
       id="rect3907"
       height="2"
       width="137.38036"
       y="503.42215"
       x="103.11943"
       style="fill:#2f2e41" />
    <rect
       id="rect3909"
       height="4.2827101"
       width="137.37997"
       y="532.30347"
       x="103.12012"
       style="fill:#2f2e41" />
    <rect
       id="rect3911"
       height="61.485722"
       width="126.00779"
       y="442.02643"
       x="103.11966"
       style="fill:#6c63ff" />
    <rect
       id="rect3913"
       style="opacity:0.2;isolation:isolate"
       height="61.485722"
       width="126.00779"
       y="442.02643"
       x="103.11966" />
    <rect
       id="rect3915"
       height="61.485722"
       width="86.915024"
       y="442.02643"
       x="142.21243"
       style="fill:#6c63ff" />
    <path
       id="path3917"
       transform="translate(-444.41424,-108.71297)"
       d="m 659.959,561.0071 h -17.1631 a 0.59381,0.59381 0 0 1 0,-1.18762 h 17.1631 a 0.59381,0.59381 0 0 1 0,1.18762 z"
       inkscape:connector-curvature="0"
       style="fill:#ffffff" />
    <path
       id="path3919"
       transform="translate(-444.41424,-108.71297)"
       d="m 575.32117,603.89529 h -17.16309 a 0.59382,0.59382 0 0 1 0,-1.18763 h 17.16309 a 0.593815,0.593815 0 0 1 0,1.18763 z"
       inkscape:connector-curvature="0"
       style="fill:#ffffff" />
    <path
       id="path3921"
       transform="translate(-444.41424,-108.71297)"
       d="m 608.34131,561.0071 h -52.80658 a 0.61747,0.61747 0 0 1 -0.619,-0.49353 0.55931,0.55931 0 0 1 0.58558,-0.6651 h 53.12207 a 0.6176,0.6176 0 0 1 -0.28205,1.15863 z"
       inkscape:connector-curvature="0"
       style="fill:#ffffff" />
    <path
       id="path3923"
       transform="translate(-444.41424,-108.71297)"
       d="M 692.98249,695.92709 586.32056,719.582 a 12.85728,12.85728 0 0 1 -12.85724,-12.85724 c -10.47538,-26.79837 -10.65282,-51.91853 0,-75.27374 a 12.85728,12.85728 0 0 1 12.85724,-12.85724 l 106.66193,-23.6549 a 12.85724,12.85724 0 0 1 12.85723,12.85721 c 9.85742,28.11328 18.00751,55.70313 0,75.27374 a 12.85729,12.85729 0 0 1 -12.85723,12.85726 z"
       inkscape:connector-curvature="0"
       style="fill:#2f2e41" />
    <path
       id="path3925"
       transform="translate(-444.41424,-108.71297)"
       d="m 596.66327,634.57033 1.36501,8.42967 69.6,-1.81462 v 0 c 0.23338,-4.41383 -31.37986,-7.71824 -64.90238,-6.784 z"
       inkscape:connector-curvature="0"
       style="fill:#3f3d56" />
    <path
       id="path3927"
       transform="translate(-444.41424,-108.71297)"
       d="m 596.66327,655.57033 1.36501,8.42967 69.6,-1.81462 v 0 c 0.23338,-4.41383 -31.37986,-7.71824 -64.90238,-6.784 z"
       inkscape:connector-curvature="0"
       style="fill:#3f3d56" />
    <path
       id="path3929"
       transform="translate(-444.41424,-108.71297)"
       d="m 596.66327,680.57033 1.36501,8.42967 69.6,-1.81462 v 0 c 0.23338,-4.41383 -31.37986,-7.71824 -64.90238,-6.784 z"
       inkscape:connector-curvature="0"
       style="fill:#3f3d56" />
    <path
       id="path3931"
       transform="translate(-444.41424,-108.71297)"
       d="m 719.04871,508.25671 -1.96136,18.81839 -0.45978,4.35223 -0.70484,6.98785 -15.14044,145.24469 a 19.77416,19.77416 0 0 1 -8.67364,22.5575 18.96429,18.96429 0 0 1 -25.99012,-6.5589 c -0.092,-0.1532 -0.15338,-0.3064 -0.24524,-0.45959 a 19.88476,19.88476 0 0 1 6.8653,-26.84839 20.14915,20.14915 0 0 1 2.85034,-1.34857 l -0.12256,-4.07636 -0.36779,-12.78052 -0.27594,-9.65442 -0.58234,-19.21662 -0.2146,-7.44782 -0.7049,-24.15106 -0.67419,-23.29321 -0.82758,-28.22742 -0.64373,-21.6994 7.81543,-1.99225 z"
       inkscape:connector-curvature="0"
       style="fill:#a0616a" />
    <path
       id="path3933"
       transform="translate(-444.41424,-108.71297)"
       d="m 734.18921,483.70892 c -0.70483,3.59253 -1.34857,5.914 -1.80816,6.66 -3.9538,6.19043 -6.375,-2.45941 -4.19886,14.12173 1.747,13.45835 -8.735,11.77243 -4.96508,14.64664 6.22161,4.75318 -2.36,6.85346 -6.12976,9.42352 -1.68586,1.13312 2.98174,0.864 4.91265,2.43919 0.91858,0.71967 -3.44384,2.79952 -2.36889,3.25362 4.107,1.93451 1.747,3.39924 -3.70838,4.53223 -9.04144,1.8515 -26.542,2.76355 -37.11584,3.1228 -3.00354,0.13813 -5.45538,0.19349 -6.98779,0.24878 -1.134,0.0275 -1.77771,0.0275 -1.77771,0.0275 0,0 -2.66645,-1.71338 -3.76972,-6.93628 -0.79693,-3.64789 -0.79693,-9.03674 1.40973,-16.7746 1.34857,-4.75332 3.64722,-8.1524 4.99579,-10.88827 a 7.18976,7.18976 0 0 0 1.04211,-4.25592 v -0.0277 c -0.2146,-1.40924 -1.226,-2.70819 -3.52472,-4.08994 -4.13751,-2.48706 -1.83886,-7.71017 1.37922,-12.6293 3.06488,-4.615 6.92663,-9.00912 6.92663,-10.61182 0,-3.39923 -25.49988,-75.63751 -25.49988,-75.63751 L 662.379,291.25741 a 36.07551,36.07551 0 0 1 24.45764,-6.10727 c 5.91541,0.77368 12.50476,3.26092 19.2782,8.84311 5.91522,4.89148 11.98358,12.18722 17.807,22.74386 24.76426,44.85189 15.53904,140.49723 10.26737,166.97181 z"
       inkscape:connector-curvature="0"
       style="fill:#e6e6e6" />
    <circle
       id="circle3935"
       r="54.737839"
       cy="74.33239"
       cx="166.11047"
       style="fill:#a0616a" />
    <path
       id="path3937"
       transform="translate(-444.41424,-108.71297)"
       d="m 667.48944,210.89437 c 0,0 -15.18865,12.40323 -23.51709,16.02173 2.30585,-8.00812 4.70838,-21.75676 7.00782,-29.74213 1.19574,-4.20175 2.417,-8.49492 2.22247,-12.83758 -0.211,-4.37193 -2.08282,-8.88634 -5.78925,-11.15169 a 10.0547,10.0547 0 0 0 -14.60894,12.26892 c -3.62805,-0.24716 -5.677,-4.392 -6.12116,-8.01553 -0.44421,-3.62372 -0.10785,-7.57187 -2.11053,-10.644 -1.93042,-2.978 -5.74182,-4.336 -9.31177,-4.17271 -3.54083,0.14691 -6.90338,1.60035 -10.07574,3.25485 -9.07154,4.693 -17.30988,11.171 -27.07019,14.26726 a 32.90308,32.90308 0 0 1 -6.00843,1.30764 25.779,25.779 0 0 0 -5.54211,-16.28318 44.45273,44.45273 0 0 1 -4.571,15.78131 18.86245,18.86245 0 0 1 -11.69421,-7.47393 c -3.055,-4.42526 -3.80634,-10.13075 -3.08752,-15.45118 a 36.53516,36.53516 0 0 1 1.77649,-7.16989 22.52994,22.52994 0 0 0 4.1748,-1.449 24.51589,24.51589 0 0 0 7.86627,-5.49725 40.18032,40.18032 0 0 1 -9.015,-0.63959 c 0.0738,-0.17648 0.14135,-0.3302 0.21527,-0.50682 1.70111,-3.7158 3.58392,-7.55336 6.86865,-9.96522 3.28467,-2.41173 8.37238,-2.89155 11.2254,0.0479 a 52.08774,52.08774 0 0 1 71.90845,-15.98247 q 0.38984,0.248 0.77515,0.50294 a 24.75864,24.75864 0 0 0 -4.80207,8.29846 42.21844,42.21844 0 0 1 10.21961,-3.683 c 2.5,2.79165 4.08038,6.14056 3.40253,9.72244 4.14514,2.01787 12.22863,5.38 8.40777,7.59306 a 53.38331,53.38331 0 0 1 7.25415,71.59871 z"
       inkscape:connector-curvature="0"
       style="fill:#2f2e41" />
    <path
       id="path3939"
       transform="translate(-444.41424,-108.71297)"
       d="m 599.628,586.88137 a 18.96931,18.96931 0 0 1 -20.1289,17.70917 4.20385,4.20385 0 0 0 -0.51392,-0.0643 19.90236,19.90236 0 0 1 -18.2445,-20.8783 21.3391,21.3391 0 0 1 0.51391,-3.10486 l -3.42615,-2.20569 -10.74969,-6.95947 -8.0943,-5.22491 -16.1673,-10.42847 -6.25287,-4.02576 -0.83514,-0.53534 -19.465,-12.59124 -15.632,-10.08576 -1.32764,-0.85663 -2.61255,-1.69165 -23.72638,-15.31082 -6.38123,-4.11139 c -0.0215,-0.0214 0,-0.0214 0,-0.0214 -0.21408,-0.40686 13.21219,-7.06647 12.99811,-7.47336 -3.38339,-6.70248 -7.66613,-12.33429 -2.14135,-36.40323 l -5.63178,-10.12869 14.39,12.29157 3.31909,2.84793 5.35342,4.53967 66.211,56.48929 44.88317,38.28766 a 19.79572,19.79572 0 0 1 13.662,19.93603 z"
       inkscape:connector-curvature="0"
       style="fill:#a0616a" />
    <path
       id="path3941"
       transform="translate(-444.41424,-108.71297)"
       d="m 587.50776,379.36157 -74.24115,114.15628 29.82922,33.34115 -2.01288,1.79871 -25.35382,22.5058 -7.17352,6.35992 -13.27655,-2.69818 c 0,0 -2.63385,-4.00433 -16.48856,-6.06012 -13.85458,-2.05579 -5.78159,-6.76666 0.34268,-15.97461 1.45612,-2.20557 -4.19711,1.26349 -4.56112,0.49261 -0.17133,-0.47119 -3.59748,-2.0343 -4.28275,-2.14135 -2.82663,-0.53534 -0.0643,-2.14136 -4.13281,-2.97657 -6.53116,-1.32763 -6.91657,3.29767 -19.57215,-21.6492 -0.0214,-0.0214 0,-0.0214 0,-0.0214 -0.21408,-0.40686 -0.40686,-0.7923 -0.62094,-1.19916 -3.38339,-6.70248 -0.9422,-25.33239 4.58255,-49.40133 8.43686,-36.70307 24.02607,-86.0401 37.00275,-124.82026 a 55.95274,55.95274 0 1 1 99.959,48.28782 z"
       inkscape:connector-curvature="0"
       style="fill:#e6e6e6" />
    <path
       id="path3943"
       transform="translate(-444.41424,-108.71297)"
       d="m 617.01923,672.38423 a 1.52141,1.52141 0 0 0 1.423,-2.47885 l -0.0517,-0.42421 0.0535,-0.0935 a 4.08563,4.08563 0 0 1 7.47411,0.968 c 0.85264,3.09933 2.0387,6.24569 2.0305,9.4083 a 12.08649,12.08649 0 0 1 -0.72914,4.098 48.45968,48.45968 0 0 0 6.88456,-19.41934 46.7746,46.7746 0 0 0 0.36307,-5.21325 q 0.0274,-2.14377 -0.13386,-4.28075 a 49.02015,49.02015 0 0 0 -7.0533,-21.82651 13.04571,13.04571 0 0 1 -4.681,-6.2621 9.94931,9.94931 0 0 1 -0.55868,-2.811 c 0.25774,0.0673 1.48572,-3.83269 1.31887,-4.10245 0.43492,-0.50826 1.12324,-0.70158 1.59012,-1.19226 2.322,-2.44017 4.99608,-1.6269 5.96335,2.20746 2.85458,1.92158 2.5633,4.47657 0.38455,6.69506 -1.38614,1.41148 -1.81523,3.5032 -3.0694,5.04315 0.0901,0.151 0.18509,0.29828 0.27522,0.44923 a 49.33912,49.33912 0 0 1 4.09152,8.73679 20.51008,20.51008 0 0 1 2.40339,-9.29924 c 1.51559,-2.659 3.9923,-4.74763 6.21663,-6.93143 a 4.20968,4.20968 0 0 1 7.1815,2.98638 l -0.002,0.10867 q -0.4579,0.18742 -0.90163,0.40685 a 2.06369,2.06369 0 0 0 0.357,3.83 l 0.0409,0.0117 a 20.53192,20.53192 0 0 1 -0.92,2.97861 c 1.265,9.83223 -4.48714,12.63213 -12.09736,11.83349 -0.17836,0.0648 -0.35249,0.1302 -0.53029,0.1908 a 50.3585,50.3585 0 0 1 1.09807,12.9951 47.75685,47.75685 0 0 1 -0.99651,7.64744 l 0.0243,-0.0886 a 12.62152,12.62152 0 0 1 5.184,-6.69321 c 3.62954,-2.28879 8.40241,-2.69951 12.22461,-4.42545 a 2.36864,2.36864 0 0 1 3.312,2.73888 l -0.0264,0.093 a 13.85692,13.85692 0 0 0 -1.63579,0.5493 q -0.458,0.18755 -0.90164,0.40685 a 2.06369,2.06369 0 0 0 0.357,3.83 l 0.041,0.0117 0.0843,0.0237 a 20.55119,20.55119 0 0 1 -4.48912,5.40142 c -2.58486,8.11928 -9.29686,8.0765 -16.06621,4.76621 l -0.004,-5.2e-4 a 50.343,50.343 0 0 1 -4.58715,9.3737 l -11.98671,-1.50717 c -0.0263,-0.13861 -0.0476,-0.281 -0.0696,-0.419 a 13.7266,13.7266 0 0 0 3.34166,0.2195 c -0.75216,-1.20311 -1.50317,-2.4148 -2.25532,-3.6179 a 0.742,0.742 0 0 1 -0.0478,-0.0715 c -0.3809,-0.61518 -0.76662,-1.22672 -1.14753,-1.84195 l -1.5e-4,-7.2e-4 a 20.10637,20.10637 0 0 1 1.22349,-5.00838 z"
       inkscape:connector-curvature="0"
       style="fill:#f2f2f2" />
  </g>
</svg>
